<?xml version="1.0" encoding="UTF-8"?>
<svg id="Camada_1" data-name="Camada 1" xmlns="http://www.w3.org/2000/svg" viewBox="0 0 278.81 127.66">
  <defs>
    <style>
      .cls-1 {
        fill: #f8eee5;
      }

      .cls-2 {
        fill: #6b9faf;
      }
    </style>
  </defs>
  <g>
    <path class="cls-1" d="M107.98,81.81c.07.61.21,1.12.41,1.54.14.34.34.66.62.97.27.31.65.46,1.13.46h-20.34v-45.95c0-.89-.21-1.52-.62-1.89-.41-.37-.69-.6-.82-.67-.34-.2-.51-.48-.51-.82,0-.68.31-1.02.93-1.02h10.17c1.23,0,2.4.24,3.49.72,1.09.48,2.05,1.12,2.88,1.94.82.82,1.47,1.79,1.95,2.92.48,1.13.72,2.3.72,3.53v38.27ZM99.05,32.59c-2.53,0-4.69-.88-6.47-2.66-1.78-1.77-2.67-3.92-2.67-6.45s.89-4.66,2.67-6.4c1.78-1.74,3.94-2.61,6.47-2.61s4.59.87,6.37,2.61c1.78,1.74,2.67,3.87,2.67,6.4,0,1.23-.24,2.41-.72,3.53-.48,1.13-1.13,2.1-1.95,2.92-.82.82-1.78,1.47-2.88,1.94-1.1.48-2.26.72-3.49.72Z"/>
    <path class="cls-1" d="M164.63,76.23c.17,2.01.39,3.67.67,4.96.27,1.5.62,2.7,1.03,3.58h-6.06c-1.51,0-2.89-.02-4.16-.05-1.27-.04-1.87-.05-1.8-.05-2.19-.27-4.04-1.16-5.55-2.66-1.51-1.5-2.36-3.34-2.57-5.53v-27.63c-.14-1.3-.38-2.23-.72-2.81-.34-.58-.76-.92-1.23-1.02-.48-.1-.93-.07-1.34.1-.41.17-.72.33-.92.46-.69.61-1.42,1.28-2.21,2s-1.56,1.43-2.31,2.15c-.75.72-1.44,1.37-2.06,1.94-.62.58-1.06,1.01-1.34,1.28v29.78c.14.48.34.92.62,1.33s.68.62,1.23.62h-20.03v-46.26c0-.89-.2-1.52-.62-1.89-.41-.37-.68-.6-.82-.67h-.1c-.27-.14-.41-.41-.41-.82,0-.68.31-1.02.92-1.02h10.07c2.53,0,4.69.89,6.47,2.66,1.78,1.77,2.67,3.92,2.67,6.45v5.42c2.19-2.87,4.09-5.34,5.7-7.42,1.61-2.08,3.1-3.67,4.47-4.76.89-.75,1.81-1.28,2.77-1.59.96-.31,1.81-.53,2.57-.67.89-.14,1.78-.17,2.67-.1,1.85,0,3.42.24,4.73.72,1.3.48,2.4,1.09,3.29,1.84.89.75,1.59,1.57,2.11,2.46.51.89.94,1.74,1.28,2.56.21.55.38,1.09.52,1.64.14.55.2,1.16.2,1.84v23.54c0,3.07.09,5.61.26,7.62Z"/>
    <path class="cls-1" d="M248.67,78.4c.17,1.37.37,2.55.6,3.52.23,1.09.49,2.03.78,2.83l-10.17-.09c-1.78-.23-3.31-.97-4.57-2.23-1.27-1.26-1.98-2.8-2.16-4.64,0,.06,0-.42,0-1.42s-.03-2.28-.09-3.82c-1.84,2.4-3.42,4.48-4.74,6.23-1.32,1.75-2.56,3.08-3.71,3.99-.81.63-1.61,1.07-2.41,1.33-.81.26-1.52.44-2.16.56-.75.11-1.5.14-2.24.09-1.55,0-2.86-.2-3.92-.6-1.06-.4-1.97-.92-2.72-1.55-.75-.63-1.35-1.32-1.81-2.06-.46-.74-.83-1.46-1.12-2.15-.4-.97-.6-1.95-.6-2.92v-29.89c-.06-.63-.24-1.09-.56-1.37-.32-.29-.53-.46-.65-.52-.29-.11-.43-.34-.43-.69,0-.57.29-.86.86-.86h8.36c2.12,0,3.94.74,5.43,2.23,1.49,1.49,2.24,3.29,2.24,5.41v25.68c0,.29.09.54.26.77.11.17.27.3.47.39.2.09.53.02.99-.21.34-.17.9-.6,1.68-1.29.78-.69,1.59-1.43,2.46-2.23.86-.8,1.7-1.57,2.5-2.32.8-.74,1.38-1.29,1.72-1.63v-26.8h15.26v31.43c.11,1.83.26,3.44.43,4.81Z"/>
    <path class="cls-1" d="M209.46,17.54c2.53,0,4.69.87,6.47,2.61,1.78,1.74,2.67,3.87,2.67,6.4,0,.61-.04,1.09-.1,1.43,0,.34-.09.9-.26,1.69-.17.78-.5,1.67-.97,2.66-.48.99-1.19,2-2.15,3.02-.96,1.02-2.23,2-3.84,2.92s-3.58,1.71-5.93,2.35c-2.35.65-5.16,1.04-8.44,1.18v38.58c0,.89.21,1.5.62,1.84.41.34.68.55.82.61,0,.07.03.1.1.1.27.14.41.41.41.82,0,.68-.31,1.02-.92,1.02h-20.24c-.69,0-1.03-.34-1.03-1.02,0-.41.17-.68.51-.82l.1-.1c.14-.07.41-.27.82-.61.41-.34.62-.95.62-1.84v-36.43c-.34-.48-.79-.77-1.33-.87-.55-.1-1.11-.12-1.7-.05-.58.07-1.17.2-1.75.41-.58.2-1.08.41-1.49.61-.41.2-.82.5-1.23.87-.41.38-.81.77-1.18,1.18-.38.41-.77.77-1.18,1.07-.41.31-.86.43-1.33.36-.55,0-.96-.22-1.23-.66-.27-.44-.38-1.01-.31-1.69.07-.68.27-1.4.62-2.15.34-.75.82-1.5,1.44-2.25.89-1.02,1.9-1.82,3.03-2.4,1.13-.58,2.21-1.04,3.24-1.38s1.95-.58,2.77-.72c.82-.14,1.37-.2,1.64-.2v-11.46c0-.88-.2-1.52-.62-1.89-.41-.38-.69-.6-.82-.67h-.1c-.34-.2-.51-.48-.51-.82,0-.68.34-1.02,1.03-1.02h20.24c.62,0,.92.34.92,1.02,0,.27-.14.55-.41.82h-.1c-.14.07-.41.29-.82.67-.41.38-.62,1.01-.62,1.89v11.15c.86-.2,1.52-.53,1.99-.97.46-.44.79-.87.99-1.28.27-.48.41-.99.41-1.54l.1-5.42c0-2.52.89-4.66,2.67-6.4,1.78-1.74,3.9-2.61,6.37-2.61Z"/>
  </g>
  <g>
    <polygon class="cls-2" points="94.52 109.1 92.57 104.96 92.52 104.86 91.14 104.86 93.87 110.52 95.13 110.52 97.86 104.86 96.49 104.86 94.52 109.1"/>
    <rect class="cls-2" x="100.91" y="104.86" width="1.27" height="5.66"/>
    <polygon class="cls-2" points="108.61 109.1 106.66 104.96 106.62 104.86 105.24 104.86 107.97 110.52 109.22 110.52 111.95 104.86 110.58 104.86 108.61 109.1"/>
    <path class="cls-2" d="M117.59,104.86h-1.38l-2.71,5.66h1.37l.57-1.22h2.93l.57,1.22h1.37l-2.67-5.56-.04-.1ZM117.85,108.19h-1.9l.95-2.03.94,2.03Z"/>
    <path class="cls-2" d="M130.99,104.86h-1.38l-2.72,5.66h1.37l.57-1.22h2.93l.57,1.22h1.37l-2.67-5.56-.04-.1ZM131.24,108.19h-1.9l.95-2.03.95,2.03Z"/>
    <polygon class="cls-2" points="138.03 104.86 136.76 104.86 136.76 110.52 141.62 110.52 141.62 109.37 138.03 109.37 138.03 104.86"/>
    <polygon class="cls-2" points="145.94 108.25 149.42 108.25 149.42 107.14 145.94 107.14 145.94 106.01 149.59 106.01 149.59 104.86 144.65 104.86 144.65 110.52 149.63 110.52 149.63 109.38 145.94 109.38 145.94 108.25"/>
    <polygon class="cls-2" points="149.07 103.35 147.48 103.35 146.12 104.76 147.54 104.76 149.07 103.35"/>
    <polygon class="cls-2" points="156.87 109.09 154.82 104.86 153.12 104.86 153.12 110.52 154.34 110.52 154.34 106.64 156.26 110.52 157.47 110.52 159.39 106.63 159.39 110.52 160.61 110.52 160.61 104.86 158.91 104.86 156.87 109.09"/>
    <path class="cls-2" d="M173.28,105.21c-.48-.23-1.04-.35-1.67-.35h-2.58v5.66h2.58c.63,0,1.19-.12,1.67-.35.48-.24.87-.57,1.14-.99.27-.43.41-.93.41-1.48s-.14-1.06-.41-1.49c-.27-.42-.65-.76-1.14-.99ZM171.67,109.37h-1.37v-3.35h1.37c.38,0,.71.07.99.21.28.14.49.33.64.58.15.24.23.54.23.88s-.08.63-.23.88c-.15.25-.37.44-.64.58-.28.14-.62.21-.99.21Z"/>
    <path class="cls-2" d="M182.85,105.13c-.48-.24-1.05-.37-1.67-.37s-1.19.12-1.67.37c-.48.24-.87.59-1.14,1.03s-.41.96-.41,1.53.14,1.09.41,1.53.65.79,1.14,1.03c.48.24,1.04.37,1.67.37s1.19-.12,1.67-.37c.48-.24.87-.59,1.14-1.03.27-.44.41-.96.41-1.53s-.14-1.09-.41-1.53c-.27-.44-.65-.79-1.14-1.03ZM181.17,109.45c-.4,0-.75-.07-1.04-.22-.29-.14-.51-.34-.66-.6-.16-.26-.24-.57-.24-.94s.08-.67.24-.94c.16-.26.37-.46.66-.6.29-.14.64-.22,1.04-.22s.75.07,1.04.22c.29.14.5.34.66.6.16.26.23.58.23.94s-.08.68-.23.94c-.16.26-.37.46-.66.6-.29.14-.64.22-1.04.22Z"/>
    <path class="cls-2" d="M196.66,108.17c.3-.14.55-.35.72-.61.18-.27.27-.58.27-.92s-.09-.67-.27-.93c-.18-.26-.42-.47-.73-.62-.3-.15-.66-.22-1.06-.22h-3.07v5.66h1.27v-2.13h.83l1.74,2.07.05.06h1.56l-1.85-2.18c.19-.04.37-.1.53-.18ZM193.8,106.01h1.71c.27,0,.49.06.64.17.14.11.21.26.21.45s-.07.34-.21.45c-.15.12-.37.18-.64.18h-1.71v-1.26Z"/>
    <path class="cls-2" d="M205.7,105.13c-.48-.24-1.04-.37-1.67-.37s-1.19.12-1.67.37c-.48.24-.87.59-1.14,1.03-.27.44-.41.96-.41,1.53s.14,1.09.41,1.53c.27.44.65.78,1.14,1.03.48.24,1.04.37,1.67.37s1.19-.12,1.67-.37c.48-.24.87-.59,1.14-1.03.27-.44.41-.96.41-1.53s-.14-1.09-.41-1.53c-.27-.44-.65-.79-1.14-1.03ZM204.02,109.45c-.4,0-.75-.07-1.04-.22-.28-.14-.51-.34-.66-.6-.16-.26-.24-.57-.24-.94s.08-.67.24-.94c.16-.26.37-.46.66-.6.29-.14.64-.22,1.04-.22s.75.07,1.04.22.5.34.66.6c.16.26.24.57.24.94s-.08.68-.24.94c-.16.26-.37.46-.66.6-.29.14-.64.22-1.04.22Z"/>
    <polygon class="cls-2" points="209.9 106.02 212.1 106.02 212.1 110.52 213.37 110.52 213.37 106.02 215.57 106.02 215.57 104.86 209.9 104.86 209.9 106.02"/>
    <polygon class="cls-2" points="219.9 108.25 223.38 108.25 223.38 107.14 219.9 107.14 219.9 106.01 223.55 106.01 223.55 104.86 218.61 104.86 218.61 110.52 223.58 110.52 223.58 109.38 219.9 109.38 219.9 108.25"/>
    <rect class="cls-2" x="227.07" y="104.86" width="1.27" height="5.66"/>
    <path class="cls-2" d="M236.17,108.17c.31-.14.55-.35.72-.62.18-.27.27-.58.27-.92s-.09-.67-.27-.93c-.17-.26-.42-.47-.73-.62-.3-.15-.66-.22-1.06-.22h-3.07v5.66h1.27v-2.13h.83l1.74,2.07.05.06h1.56l-1.85-2.18c.19-.04.37-.1.53-.17ZM233.31,106.01h1.71c.27,0,.49.06.64.17.14.11.21.26.21.45s-.07.34-.21.45c-.15.12-.37.18-.64.18h-1.71v-1.26Z"/>
    <path class="cls-2" d="M246.34,106.16c-.27-.44-.65-.79-1.14-1.03-.48-.24-1.05-.37-1.67-.37s-1.19.12-1.67.37c-.48.24-.87.59-1.14,1.03s-.41.96-.41,1.53.14,1.09.41,1.53.65.79,1.14,1.03c.48.24,1.04.37,1.67.37s1.19-.12,1.67-.37c.48-.24.87-.59,1.14-1.03.27-.44.41-.96.41-1.53s-.14-1.09-.41-1.53ZM243.53,109.45c-.4,0-.75-.07-1.04-.22-.29-.14-.51-.34-.66-.6-.16-.26-.24-.57-.24-.94s.08-.67.24-.94c.16-.26.37-.46.66-.6.29-.14.64-.22,1.04-.22s.75.07,1.04.22c.29.14.5.34.66.6.16.26.23.58.23.94s-.08.68-.23.94c-.16.26-.37.46-.66.6-.29.14-.64.22-1.04.22Z"/>
  </g>
  <g>
    <g>
      <path class="cls-2" d="M66.74,61.21l-9.3-2.17,3.81-3.56c.46-.43.48-1.14.05-1.6-.43-.46-1.14-.48-1.6-.05l-4.07,3.8-2.67-14.08c-.09-.49-.51-.84-1.01-.84h0c-.5,0-.92.35-1.01.84l-2.59,13.97-3.95-3.65c-.46-.42-1.18-.4-1.6.06-.42.46-.4,1.18.06,1.6l3.85,3.56-9.91,2.15c-.47.1-.8.5-.81.98-.01.48.29.89.76,1.02l9.96,2.74-3.81,3.56c-.46.43-.48,1.14-.05,1.6.22.24.52.36.83.36.28,0,.55-.1.77-.3l3.86-3.61,2.63,13.34c.1.49.51.83,1.01.83,0,0,0,0,0,0,.5,0,.92-.34,1.01-.84l2.62-13.62,4.17,3.86c.22.2.49.3.77.3.3,0,.61-.12.83-.36.42-.46.4-1.18-.06-1.6l-3.97-3.68,9.47-2.6c.46-.13.77-.53.76-1.01,0-.48-.33-.88-.8-.98ZM59.05,62.7l-4.79,1.39-1.91,7.19c-.05.24-.25.41-.49.41,0,0,0,0,0,0-.24,0-.44-.17-.49-.4l-1.69-7.2-5.19-1.38c-.23-.06-.37-.26-.37-.5,0-.23.16-.43.39-.47l5.16-1.4,1.7-7.17c.04-.24.25-.41.49-.41h0c.24,0,.45.17.49.41l1.89,7.19,4.79,1.38c.23.05.38.24.39.48,0,.23-.14.43-.37.49Z"/>
      <circle class="cls-1" cx="51.76" cy="62.22" r="2.2"/>
    </g>
    <path class="cls-1" d="M72.52,37.79c-3.15-4.29-17.31-22.3-17.31-22.3-1.34-1.7-3.91-1.72-5.28-.05l-18.76,22.93c-.49.6-.76,1.36-.77,2.14-.01,6.59.17,37.95.21,44.53,0,.78.28,1.54.78,2.14l18.13,21.82c1.37,1.64,3.9,1.63,5.24-.03l17.18-21.22c.26-.73.51-1.41.77-2.14l.42-45.95c0-.67-.2-1.33-.6-1.87ZM54.89,18.64l14.67,19.41c.05.06.05.15,0,.21l-3.34,3.94c-.06.07-.18.08-.25.01l-5.36-5.19-.04-.07-5.97-18.16c-.06-.18.18-.31.29-.15ZM51.2,18.43c.21-.38.77-.33.9.08l5.86,17.85c.09.28-.08.58-.37.64l-12.73,2.66c-.2.04-.4-.04-.51-.21l-2.32-3.48c-.1-.15-.11-.35-.02-.51l9.19-17.03ZM36.04,36.1l6.59-7.82c.1-.12.29,0,.23.14l-2.43,5.71c-.06.14-.17.25-.3.31l-3.93,1.87c-.13.06-.26-.1-.16-.21ZM32.51,59.91l.21-19.12c0-.15.09-.29.23-.35l6.64-3.04c.17-.08.38-.02.49.14l2.32,3.49c.08.12.09.26.03.39l-9.17,18.67c-.18.37-.74.24-.74-.18ZM32.84,84.31l.07-13.58c0-.21.29-.28.38-.09l6.68,13.58c.07.13-.03.29-.18.29h-6.76c-.11,0-.2-.09-.2-.2ZM48.21,104.62l-13.39-17.39c-.08-.1,0-.24.12-.24l6.33.22c.06,0,.11.04.13.09l7.06,17.17c.07.16-.15.28-.25.15ZM51.6,106.14c-.03.12-.2.13-.24.01l-6.5-17.03c-.04-.11.07-.21.18-.16l9.48,5.02c.05.03.08.09.06.14l-2.98,12.01ZM69.76,86.17l-15.13,19.63c-.2.25-.6.06-.52-.25l3.01-11.61.06-.12,9.28-10.86c.11-.13.31-.14.43-.02l2.85,2.85c.1.1.12.27.02.39ZM69.67,83.06l-2.3-2.46c-.09-.09-.14-.22-.14-.34v-12.18c0-.63-.52-1.13-1.14-1.13h0c-.63,0-1.14.51-1.13,1.14l.05,12.3c0,.38-.13.74-.38,1.02l-8.3,9.61c-.49.57-1.32.71-1.97.32l-10.91-6.43c-.26-.15-.47-.38-.6-.65l-9.43-18.85c-.23-.45-.22-.98.02-1.43l11.26-21.2c.21-.4.59-.69,1.03-.79l12.75-2.9c.53-.12,1.08.04,1.46.43l4.52,4.62c.28.29.44.68.44,1.08l.04,10.82c0,.63.51,1.14,1.14,1.14h0c.63,0,1.14-.51,1.14-1.14v-11.28c0-.11.03-.21.09-.3l2.27-3.09c.29-.39.91-.19.91.3l.05,41.05c0,.46-.56.68-.87.34Z"/>
  </g>
</svg>